<?xml version="1.0" encoding="UTF-8"?>
<svg id="Layer_2" data-name="Layer 2" xmlns="http://www.w3.org/2000/svg" viewBox="0 0 61.87 66.05">
  <defs>
    <style>
      .cls-1 {
        fill: #2a3a2f;
      }

      .cls-2 {
        fill: #325b3c;
      }

      .cls-3 {
        fill: #fed600;
        stroke: #000;
        stroke-miterlimit: 10;
      }

      .cls-4 {
        fill: #68040b;
      }
    </style>
  </defs>
  <g id="SLIME_Artboard" data-name="SLIME Artboard">
    <g id="Dragon_head" data-name="Dragon head">
      <ellipse class="cls-4" cx="32.27" cy="8.02" rx="2.43" ry="1.63"/>
      <ellipse class="cls-4" cx="36.41" cy="5.39" rx="1.72" ry="3.56"/>
      <ellipse class="cls-4" cx="35.27" cy="2.5" rx="1.37" ry="1.19"/>
      <ellipse class="cls-4" cx="38.54" cy="5.84" rx="2.99" ry="3.11"/>
      <ellipse class="cls-4" cx="45.65" cy="6.65" rx="1.92" ry="3.93"/>
      <ellipse class="cls-4" cx="43.41" cy="7.89" rx="3.49" ry="2.28"/>
      <ellipse class="cls-1" cx="7.95" cy="28.25" rx="4.72" ry="3.41"/>
      <ellipse class="cls-1" cx="11.04" cy="29.84" rx="4.22" ry="6.76"/>
      <ellipse class="cls-1" cx="16.05" cy="25.16" rx="5.02" ry="4.04"/>
      <ellipse class="cls-1" cx="18.91" cy="21.71" rx="2.67" ry="2.71"/>
      <ellipse class="cls-1" cx="17.32" cy="34.2" rx="3.91" ry="7.21"/>
      <ellipse class="cls-1" cx="13.96" cy="36.1" rx="2.28" ry="1.85"/>
      <ellipse class="cls-1" cx="19.99" cy="29.88" rx="2.24" ry="4.01"/>
      <ellipse class="cls-1" cx="18.77" cy="42.33" rx="2.72" ry="4.09"/>
      <ellipse class="cls-1" cx="21.07" cy="36.3" rx="2.16" ry="5.46"/>
      <ellipse class="cls-1" cx="23.34" cy="42.98" rx="3.35" ry="4.65"/>
      <ellipse class="cls-1" cx="23.32" cy="37.2" rx="2.1" ry="3"/>
      <ellipse class="cls-1" cx="25.95" cy="39.68" rx="1.29" ry="1.73"/>
      <ellipse class="cls-1" cx="27.52" cy="41.91" rx="1.69" ry="2.01"/>
      <ellipse class="cls-1" cx="29.34" cy="42.34" rx="1.34" ry="1.58"/>
      <g>
        <ellipse class="cls-2" cx="37.26" cy="15.27" rx="14.03" ry="5.6"/>
        <ellipse class="cls-2" cx="22.35" cy="12.49" rx="4.6" ry="4.86"/>
        <ellipse class="cls-2" cx="20.22" cy="8.86" rx="1.32" ry="1.68"/>
        <ellipse class="cls-2" cx="48.65" cy="12.02" rx="1.88" ry="1.7"/>
        <ellipse class="cls-2" cx="51.28" cy="14.46" rx="1.82" ry="2.89"/>
        <ellipse class="cls-2" cx="54.25" cy="17.41" rx="2.33" ry="4.07"/>
        <ellipse class="cls-2" cx="49.58" cy="22.38" rx="8.86" ry="7.42"/>
        <ellipse class="cls-2" cx="32.27" cy="23.56" rx="11.05" ry="9.98"/>
        <ellipse class="cls-2" cx="48.7" cy="32.14" rx="11.65" ry="9.27"/>
        <ellipse class="cls-2" cx="57.31" cy="26.38" rx="2.02" ry="4.71"/>
        <ellipse class="cls-2" cx="24.84" cy="31.07" rx="2.61" ry="3.69"/>
        <ellipse class="cls-2" cx="30.31" cy="35.05" rx="5.65" ry="4.37"/>
        <ellipse class="cls-2" cx="36.24" cy="35.56" rx="3.46" ry="3.42"/>
        <ellipse class="cls-2" cx="40.97" cy="39.45" rx="11.87" ry="3.39"/>
        <ellipse class="cls-2" cx="53.84" cy="10.68" rx="2.56" ry="2.66"/>
        <ellipse class="cls-4" cx="8.79" cy="48.86" rx="2.71" ry="2.3"/>
        <ellipse class="cls-2" cx="38.99" cy="47.32" rx="10.38" ry="4.47"/>
        <ellipse class="cls-2" cx="32.69" cy="43.74" rx="2.21" ry="1.72"/>
        <ellipse class="cls-2" cx="50.15" cy="54.67" rx="2.67" ry="9.41"/>
        <ellipse class="cls-2" cx="52.45" cy="61.95" rx="1.7" ry="2.45"/>
        <ellipse class="cls-2" cx="48.19" cy="61.37" rx="2.7" ry="3.03"/>
        <ellipse class="cls-2" cx="41.16" cy="54.9" rx="5.2" ry="7.59"/>
        <ellipse class="cls-2" cx="46.55" cy="53.4" rx="2.15" ry="6.09"/>
        <ellipse class="cls-2" cx="25.16" cy="51.51" rx="3.45" ry="4.19"/>
        <ellipse class="cls-2" cx="31.96" cy="53.58" rx="5.12" ry="5.35"/>
        <ellipse class="cls-2" cx="33.84" cy="59.66" rx="5.36" ry="3.22"/>
        <ellipse class="cls-2" cx="35.4" cy="62.57" rx="4.67" ry="2.49"/>
        <ellipse class="cls-2" cx="24.47" cy="55.17" rx="3.81" ry="4.91"/>
        <ellipse class="cls-2" cx="26.31" cy="60.09" rx="4.96" ry="3.65"/>
        <ellipse class="cls-2" cx="8.59" cy="52.76" rx="1.24" ry="1.45"/>
        <ellipse class="cls-2" cx="9.87" cy="55.06" rx="1.74" ry="1.91"/>
        <ellipse class="cls-2" cx="12.29" cy="57.13" rx="2.42" ry="2.2"/>
        <ellipse class="cls-2" cx="15.45" cy="58.78" rx="2.7" ry="2.34"/>
        <ellipse class="cls-2" cx="19.43" cy="59.75" rx="2.8" ry="2.37"/>
        <path d="M31.41,65.96c-.49-.12-.95-.43-1.27-.86l-.3-.4-3.4-.03c-3.81-.04-3.8-.04-4.72-.81-.3-.25-.52-.36-.75-.36-.8,0-3.3-.55-4.79-1.05-.9-.3-2.94-1.3-3.78-1.83-1.01-.65-2.14-1.58-3.06-2.51-2.04-2.07-3.14-4.2-3.31-6.43-.07-.97-.11-1.09-.54-1.92-.6-1.17-.73-1.79-.52-2.52.28-.97,1.09-1.69,2.35-2.08.72-.23,1.89-.25,2.38-.04.54.23,1.04.88,1.12,1.46.05.4.12.53.42.75,1.38,1.03,1.77,1.91,1.31,2.93-.17.37-.74.95-1.33,1.36-.14.1-.26.24-.26.32,0,.36.49,1.12,1.13,1.76,1.18,1.19,2.62,1.96,4.3,2.29.7.14,2.73.2,2.84.09.03-.03.06-.64.08-1.36.04-2.28.69-3.86,2.28-5.51.45-.47.82-.89.82-.95,0-.18-1.65-1.71-1.85-1.71-.26,0-.6.36-1.33,1.36-.77,1.07-1.21,1.3-1.85.97-.53-.27-.58-.43-.9-2.6-.6-4.06-1.41-5.94-3.16-7.3-1.3-1.01-2.36-1.37-4.44-1.5-1.42-.09-1.57-.13-1.96-.54-.21-.23-.25-.38-.32-1.41-.14-1.97-.24-2.56-.52-3.13-.29-.59-.72-.98-1.31-1.19-.46-.17-1.98-.18-3.04-.02-.94.14-1.34.03-1.58-.42-.34-.67-.16-1.05,1.1-2.27,4.45-4.32,12.64-8.8,18.56-10.14.28-.06.52-.15.52-.2s-.19-.15-.41-.24c-1.49-.6-2.75-2.14-3.05-3.76-.24-1.29.01-3.43.7-5.91.51-1.85.95-2.2,2.61-2.1,2.73.18,5.64,1.73,7.16,3.81.24.33.48.6.53.6s.32-.13.6-.29l.52-.29.21-1.26c.11-.69.23-1.51.27-1.81.08-.74.34-1.14.91-1.39.82-.36,2.84-.12,4,.48l.27.14v-.43c0-.27-.1-.63-.27-.96-.34-.68-1.45-1.8-2.36-2.39-.78-.5-.92-.68-.92-1.21,0-.75.37-1,1.6-1.09,2.73-.2,6.48,1.23,9.27,3.53.25.21.51.38.58.38.22,0,.05-.81-.28-1.33-.39-.61-.39-.94-.02-1.36.27-.3.33-.32.91-.31,1.5.03,3.17.75,4.28,1.86,1.51,1.51,2.02,3.52,1.42,5.57-.06.19-.1.36-.1.37s.27.16.61.33c.75.38.93.35,2.23-.3.66-.33,1.27-.75,1.94-1.33.88-.76,1.02-.84,1.38-.84.72,0,1.29.54,1.93,1.78.93,1.83.85,4.3-.2,5.79l-.29.42.64.98c2.05,3.13,3.05,6.63,3.7,12.92.1.97.17,1.25.5,1.95.54,1.15.71,1.88.71,2.99,0,1.15-.2,1.92-.79,3.07-.98,1.92-3.02,3.73-5.6,4.98-1.13.54-3.57,1.38-4.93,1.68-.71.16-.8.21-.88.46-.08.23-.07.3.09.38.77.43,1.91,1.91,2.65,3.45.92,1.9,1.38,3.59,1.57,5.73.14,1.65,0,3.55-.37,5.05-.13.54-.24.99-.24,1s.2.14.44.28c1.02.6,1.65,1.72,1.66,2.95,0,1.17-.52,2.05-1.56,2.6l-.49.26h-3.65c-3.6,0-3.66,0-4.07-.22-.23-.12-.57-.36-.75-.52l-.34-.3h-2.01s-2.01.01-2.01.01l-.3.46c-.16.25-.45.58-.64.73-.65.51-1.19.58-4.73.57-1.77,0-3.35-.04-3.52-.08h0ZM32.76,63.62c.01-1.11.35-1.85.75-1.62.16.09.18.23.18,1.07v.97l1.05.03c.98.03,1.06.01,1.16-.17.14-.26-.01-1.12-.29-1.67-.24-.48-.18-.7.19-.7.55,0,.97.79,1.04,1.97l.03.55.68.03c.58.02.72,0,.95-.19.26-.21.27-.25.24-.88-.04-.76-.3-1.23-.88-1.62-.7-.47-1.79-2.55-2.36-4.54-.45-1.54-.61-2.98-.52-4.78.07-1.5.07-1.53.34-1.8.38-.38.89-.38,1.28.01l.29.29v1.71c0,1.83.12,2.71.54,4.15.26.89,1.36,3.33,1.5,3.33.04,0,.08-.17.08-.37,0-.35.03-.38.58-.65,1.29-.63,2.72-.64,4.03-.05.78.36,1.01.57.94.91-.07.37.14.23.82-.56.73-.86,1.38-1.93,1.76-2.92,1.09-2.83,1.01-7.13-.2-10.11-.18-.45-.79-1.83-.83-1.9-.01-.02-.55.05-1.19.14-1.7.25-6.88.25-8.22,0-1.4-.26-2.77-.62-3.75-.99l-.88-.33-.27.36c-.43.56-1.53,2.83-1.88,3.86-.35,1.06-.73,2.62-.93,3.8-.19,1.16-.16,4.22.04,5.35.29,1.58,1.04,3.65,1.53,4.2.12.14.25.16.63.11.43-.06.5-.04.77.24.4.4.39.75-.04,1.35-.73,1.02-.49,1.92.51,1.93.32,0,.32,0,.32-.47h0ZM38.34,56.51c-.17-.19-.2-.39-.1-.66.08-.2,1.64-.94,2.71-1.28,1.39-.44,2.39-.3,4.26.6.55.26.78.43.82.59.09.35,0,.57-.27.72-.25.14-.32.12-1.24-.31-1.85-.86-2.39-.86-4.45.02-1.3.55-1.49.58-1.73.32h0ZM38.59,51.15c-.07-.07-.12-.27-.12-.45,0-.39.12-.47,1.73-1.25,1.34-.65,1.93-.8,2.83-.71.64.06,1.94.49,2.87.97.49.25.65.58.43.92-.2.3-.5.32-1.08.06-1.14-.51-1.91-.73-2.58-.74-.65,0-.77.03-2.11.66-1.44.67-1.75.76-1.96.54h0ZM48.14,62.73c0-.77.15-1.15.48-1.19.33-.05.4.13.4,1.04v.81h.98c.59,0,1.01-.04,1.05-.11.14-.23-.07-1.17-.36-1.61-.38-.57-.35-.89.08-.93.61-.06,1.32,1.14,1.32,2.23v.44l.52-.07c.67-.09.91-.32.91-.88,0-.62-.38-1.13-1.11-1.52-1.14-.61-1.44-1.24-1.02-2.21.48-1.14.75-3.05.68-4.78-.12-2.7-.99-5.34-2.37-7.26-.43-.59-.63-.72-.51-.35.46,1.52.78,4.26.69,5.83-.2,3.63-1.23,6.31-3.26,8.52-.65.71-.66.72-.48.92.13.14.2.41.23.86.04.57.08.67.3.78.14.07.52.12.86.13h.62s0-.66,0-.66h0ZM44.13,62.94c.14-.37-.14-.4-.34-.03-.09.16-.07.19.09.19.1,0,.22-.07.25-.16h0ZM24.51,61.91c.12-1.3.96-2.31,1.38-1.65.08.13.04.29-.17.71-.19.37-.28.71-.29,1.07v.52s1.11.03,1.11.03l1.12.03-.06-.94c-.06-.86-.05-.95.13-1.04.14-.07.23-.06.34.05.2.2.45,1.06.45,1.54v.38h.54c.3,0,.54-.02.54-.05s-.2-.32-.45-.66c-1.4-1.9-2.31-5.2-2.31-8.31,0-1.17.23-3.41.44-4.24.25-1,.24-1.02-.34-.93-.55.09-.8.15-1.2.3-.23.09-.27.16-.27.46,0,.39-.11.57-.49.83-.3.21-.56.21-.93.02-.26-.13-.3-.13-.55.05-.74.53-1.57,1.72-1.93,2.77-.53,1.55-.4,3.17.36,4.65.5.97.74,1.19,1.34,1.24.34.03.53.11.69.29.53.58.31,1.21-.55,1.62-.29.14-.56.31-.61.39-.13.2-.12.75.02,1.01.25.49.39.56,1.02.56h.61l.06-.7ZM41.64,61.51c.99-.32,2.85-1.37,2.43-1.37-.08,0-.48-.14-.88-.32-.99-.43-1.99-.44-2.97-.04l-.67.27.3.34c.16.19.41.56.54.83.29.56.34.58,1.24.28h0ZM20.79,61c.06-.23.16-.57.24-.74.1-.24.1-.34.02-.39-.06-.04-.34-.45-.61-.9l-.5-.83h-1.8c-1.66-.02-1.87-.04-2.69-.29-1.16-.35-2.89-1.2-3.71-1.82-.97-.74-1.91-1.82-2.36-2.72-.21-.43-.39-.85-.39-.94,0-.09-.14-.24-.31-.33-.17-.1-.33-.26-.36-.37-.03-.11-.09-.2-.13-.2-.3,0-.1,1.19.36,2.15,1.71,3.53,5.56,6.38,10.15,7.51,1.13.28,1.14.28,1.59.29.39.01.4,0,.51-.41h0ZM8.75,50.57c.29,0,1.8-.78,1.91-.99.09-.17.04-.24-.36-.52-.26-.18-.65-.48-.86-.68-.36-.32-.4-.42-.45-.94l-.05-.58-.52.02c-.54.02-1.01.21-1.38.55-.38.34-.31.55.63,2.05.35.56.53.95.53,1.16v.31l.2-.2c.11-.11.27-.2.36-.2h0ZM24.17,45.52c0-1.64.1-3.74.3-6.73l.11-1.68-.56-.84c-.59-.89-1.34-2.35-1.78-3.5-.34-.87-.41-.94-.55-.58-.64,1.67-2.24,8-2.81,11.04-.15.79-.32,1.44-.41,1.54-.11.12-.13.26-.09.47.04.17.1.3.14.3s.22-.15.4-.34c.45-.47.91-.66,1.57-.67.81,0,1.28.28,2.48,1.5.57.58,1.07,1.06,1.11,1.07.04,0,.07-.71.08-1.59h0ZM27.37,46.3l.78-.12.27-.64c.3-.71.27-.79-.3-.79-.23,0-.44.09-.65.27-.28.25-.9.99-1.07,1.28-.08.15-.06.15.97,0h0ZM25.33,44.82c.29-.59,1.14-1.5,1.64-1.74.55-.27,1.44-.27,2.01,0l.42.19.16-.27c.09-.15.24-.39.34-.53.1-.15.18-.31.18-.36s-.27-.25-.6-.45c-.88-.52-1.9-1.31-2.87-2.22-.95-.89-.86-.9-1.01.09-.06.39-.65,5.49-.65,5.63,0,.22.17.06.36-.33h0ZM18.35,42.19c.52-3.74,1.78-9.69,2.54-12.01l.23-.72-.24-1.3c-.13-.72-.27-1.69-.31-2.17-.04-.48-.1-.85-.15-.84-.04.02-.65.51-1.34,1.1-1.88,1.59-4.87,4.42-6.67,6.33-.88.92-1.83,1.92-2.11,2.22-.29.3-.52.59-.52.65,0,.06.37.16.82.22,1.62.22,3.17.99,4.48,2.24,1.29,1.23,2.23,2.82,2.73,4.64.25.91.26.92.34.69.04-.11.13-.57.19-1.04h0ZM41.98,42.48c7.44-.49,12.91-2.17,15.77-4.84,2.24-2.1,2.79-4.52,1.49-6.65-.22-.37-.38-.76-.41-1.04-.65-6.36-1.18-8.82-2.49-11.49-.32-.65-.86-1.6-1.2-2.12-.78-1.17-2.41-2.87-3.63-3.79-.91-.68-3.41-2.04-3.77-2.04-.09,0-.3.11-.45.24-.21.18-.25.28-.18.38,1.06,1.55,1.16,1.8.89,2.36-.23.48-.79.69-1.29.5-.09-.03-.4-.44-.7-.89-.29-.46-.61-.86-.7-.89-.2-.08-.57.34-1.12,1.27-.45.76-.7.97-1.16.97-.37,0-.9-.44-.92-.76-.04-.61.09-.92.78-1.89q.5-.7-.32-.95c-.94-.29-2.25-.54-3.69-.7-1.23-.14-1.65-.15-2.87-.05-1.57.12-3.27.45-4.49.86-.85.28-2.33,1.02-2.74,1.36l-.25.21.16.62c.13.53.14.66.02.87-.21.39-.64.57-1.07.45-.42-.13-.54-.3-.85-1.24-.8-2.46-2.32-3.93-4.99-4.83-.86-.29-1.97-.49-2.09-.37-.13.13-.74,2.68-.87,3.62-.25,1.87,0,2.89.9,3.74.99.93,2.35,1.36,4.12,1.32,1.01-.03,1.03-.02,1.26.25.25.29.31.74.13,1.06-.15.27-.59.47-1.22.55l-.55.06-.26.77c-.46,1.39-.64,2.5-.7,4.28-.07,2.11.16,3.87.8,6.09,1.2,4.18,3.21,7.28,6.15,9.49.97.73,3.2,1.87,4.41,2.26,1.5.48,3.73.87,5.62.98.27.02.6.04.74.05.14,0,.91-.03,1.73-.08h0ZM44.82,35.78c-1.34-.66-2.46-2.62-1.83-3.19.39-.35,1-.08,1.01.44,0,.36.54,1.14.98,1.43.88.58,2,.48,2.68-.23.43-.44.68-.91.68-1.26,0-.3.32-.65.59-.65.11,0,.29.09.41.21.42.42.03,1.73-.76,2.52-.67.67-1.32.95-2.3.99-.77.03-.89.01-1.45-.27h0ZM33.94,32.63c-1.7-.55-2.87-1.77-3.51-3.66-.25-.73-.25-2.37,0-3.21.58-1.94,2.07-3.37,3.92-3.76,1.52-.32,3.16.26,4.37,1.54,1.1,1.17,1.61,2.6,1.5,4.24-.07,1.07-.33,1.91-.86,2.72-1.2,1.84-3.5,2.74-5.42,2.12h0ZM35.78,26.84c.72-.58.98-1.62.6-2.37-.32-.61-1.13-1.12-1.79-1.12-.25,0-.92.32-1.21.58-.27.24-.61.96-.61,1.3,0,.72.51,1.56,1.13,1.84.18.08.54.12.91.1.51-.03.68-.08.98-.33ZM53.3,32.28c-.87-.38-1.72-1.56-2.12-2.96-.19-.67-.22-1.01-.22-2.27,0-1.31.04-1.58.27-2.35.33-1.1.56-1.55,1.08-2.11,1.17-1.27,2.62-1.08,3.65.49,1.59,2.41,1.5,6.58-.17,8.44-.7.78-1.74,1.09-2.49.76h0ZM54.36,26.44c1.06-.89.56-2.79-.73-2.79-.52,0-.82.21-1.06.73-.23.51-.23.99,0,1.5.38.84,1.17,1.09,1.79.56h0ZM23.78,14.77c-1.93-.37-2.37-.57-2.55-1.19-.36-1.21-.52-3.03-.27-3.23.28-.23,2.13.86,2.93,1.72.94,1.01,1.85,2.45,1.74,2.75-.07.2-.64.18-1.84-.05h0ZM10.09,33.68c2.4-2.78,3.9-4.4,6.03-6.52,2.08-2.07,2.15-2.15,1.78-2.09-2.21.38-4.57.95-7.12,1.74-1.06.33-1.34.38-1.45.28-.18-.15-.19-.45-.02-.56.16-.1,1.7-.71,3.07-1.22,2.29-.85,5.96-1.83,7.58-2.02l.56-.07.06-.46c.03-.25.13-.94.21-1.52s.13-1.09.1-1.13c-.03-.03-.67.11-1.42.31-3.58.98-7.96,3.02-11.71,5.46-1.8,1.17-3.99,2.84-3.99,3.05,0,.09.13.13.37.13.97,0,2.26.58,2.96,1.31.82.86,1.28,1.98,1.37,3.27.07,1.15.13,1.43.29,1.43.08,0,.68-.63,1.35-1.41ZM55.17,12.66c.29-.61.4-1.57.27-2.25-.14-.72-.47-1.45-.65-1.45-.07,0-.35.19-.63.43s-.77.58-1.1.76c-1,.57-.97.5-.37.9.29.2.91.71,1.36,1.15.46.44.85.8.89.8.03,0,.13-.15.22-.34h0ZM46.03,9.28c.57-.59,1.01-1.53,1.09-2.32.12-1.29-.76-2.8-2.04-3.52l-.37-.21-.07.57c-.1.82-.23,1.19-.66,1.81-.4.58-.84.93-2.45,1.96-.54.35-.98.68-.96.74s.23.14.47.18c1.39.26,2.81.71,3.74,1.2.52.27.61.24,1.25-.41h0ZM32.56,8.7c.57-.13,1.13-.26,1.25-.29s.26-.13.32-.23c.08-.15.05-.22-.15-.35-.69-.45-2.55-.83-2.64-.53-.02.08-.07.51-.1.96-.06.76-.05.82.12.76.1-.04.64-.18,1.21-.31h0ZM38.08,8.08c0-.32,1.97-2.06,2.69-2.36.15-.06.27-.15.27-.2,0-.25-1.97-1.64-3.18-2.25-.73-.37-2.35-1.02-2.54-1.02s-.11.26.15.5c.32.3.81,1.26.99,1.92.17.65.17,2.02-.01,2.76-.08.33-.14.63-.15.67,0,.04.4.07.88.07s.89-.04.89-.08h0Z"/>
        <g id="eye-l" class="eye eye-l">
          <path class="cls-3" d="M33.86,32.65c-3.71-1.1-4.88-6.33-2.27-9.1,1.95-2.32,5.6-2.09,7.43.25,3.21,3.73.01,10.17-5.09,8.87l-.07-.02Z"/>
          <path d="M35.83,26.83c1.94-1.62-.37-4.54-2.38-2.98-1.84,1.58.31,4.43,2.32,3.02l.06-.04Z"/>
        </g>
        <g id="eye-r" class="eye eye-r">
          <path class="cls-3" d="M53.36,32.34c-2.66-1.3-2.85-5.7-1.98-8.26,1.92-4.71,5.37-1.65,5.64,2.06.33,2.51-.49,6.71-3.55,6.24l-.11-.04Z"/>
          <path d="M54.4,26.45c1.23-.93.13-3.6-1.42-2.58-1.27.9-.28,3.63,1.36,2.62l.05-.04Z"/>
        </g>
      </g>
    </g>
  </g>
</svg>