<?xml version="1.0" encoding="UTF-8"?>
<svg id="Layer_2" data-name="Layer 2" xmlns="http://www.w3.org/2000/svg" viewBox="0 0 54.23 58.12">
  <defs>
    <style>
      .cls-1 {
        fill: #fff;
      }

      .cls-2 {
        fill: #e8b53a;
      }

      .cls-3 {
        fill: #8e7c63;
      }

      .cls-4 {
        fill: #ceae84;
      }
    </style>
  </defs>
  <g id="SLIME_Artboard" data-name="SLIME Artboard">
    <g id="Owl_head" data-name="Owl head">
      <ellipse class="cls-2" cx="26.93" cy="25.74" rx="2.65" ry="2.82"/>
      <ellipse class="cls-2" cx="29.42" cy="24.53" rx=".78" ry=".94"/>
      <ellipse class="cls-2" cx="24.82" cy="24.43" rx=".79" ry=".7"/>
      <ellipse class="cls-2" cx="27.25" cy="29.12" rx="1.07" ry="1.26"/>
      <ellipse class="cls-2" cx="34.91" cy="53.85" rx="4.47" ry="3.12"/>
      <ellipse class="cls-2" cx="19.62" cy="54.23" rx="4.37" ry="2.74"/>
      <ellipse class="cls-4" cx="21.2" cy="6.53" rx="5.45" ry="4.08"/>
      <ellipse class="cls-4" cx="8.6" cy="2.42" rx="5.21" ry="1.59"/>
      <ellipse class="cls-4" cx="11.6" cy="4.17" rx="6.62" ry="2.52"/>
      <ellipse class="cls-4" cx="14.03" cy="6.32" rx="3.03" ry="2.4"/>
      <ellipse class="cls-4" cx="25.34" cy="10.87" rx="3.34" ry="2.87"/>
      <ellipse class="cls-4" cx="27.3" cy="14.08" rx="1.52" ry="1.96"/>
      <ellipse class="cls-4" cx="29.58" cy="8.88" rx="2.28" ry="4.86"/>
      <ellipse class="cls-4" cx="28.19" cy="5.59" rx="7.34" ry="4.16"/>
      <ellipse class="cls-4" cx="35.51" cy="5.61" rx="3.2" ry="3.27"/>
      <ellipse class="cls-4" cx="32.71" cy="8.92" rx="3.13" ry="2.2"/>
      <ellipse class="cls-4" cx="38.56" cy="5.5" rx="3.62" ry="3.38"/>
      <ellipse class="cls-4" cx="42.52" cy="4.66" rx="3.42" ry="3.01"/>
      <circle class="cls-4" cx="45.85" cy="3.48" r="2.46"/>
      <ellipse class="cls-4" cx="48.08" cy="2.91" rx="2.85" ry="1.89"/>
      <ellipse class="cls-4" cx="8.31" cy="37.13" rx="3.99" ry="8.07"/>
      <ellipse class="cls-4" cx="10.67" cy="40.29" rx="3.35" ry="4.75"/>
      <ellipse class="cls-4" cx="9.92" cy="45.85" rx="3.18" ry="2.69"/>
      <ellipse class="cls-4" cx="8.87" cy="48.74" rx="2.63" ry="1.91"/>
      <ellipse class="cls-4" cx="6.72" cy="43.55" rx="3.61" ry="4.49"/>
      <ellipse class="cls-4" cx="4.2" cy="38.3" rx="2.53" ry="4.52"/>
      <ellipse class="cls-4" cx="4.64" cy="30.5" rx="3.79" ry="4.58"/>
      <ellipse class="cls-4" cx="2.69" cy="34.52" rx="1.83" ry="2.9"/>
      <ellipse class="cls-4" cx="3.58" cy="25.96" rx="2.42" ry="2.04"/>
      <ellipse class="cls-4" cx="3.5" cy="23.62" rx="1.55" ry="1.75"/>
      <ellipse class="cls-4" cx="47.98" cy="35.06" rx="4.95" ry="5.68"/>
      <ellipse class="cls-4" cx="49.98" cy="29.15" rx="3.51" ry="5.15"/>
      <ellipse class="cls-4" cx="46.62" cy="29.9" rx="1.53" ry="1.66"/>
      <ellipse class="cls-4" cx="51.03" cy="23.77" rx="1.32" ry="2.22"/>
      <ellipse class="cls-4" cx="46.9" cy="41.86" rx="4.08" ry="4.34"/>
      <ellipse class="cls-4" cx="51.37" cy="40.21" rx="1.32" ry="1.88"/>
      <ellipse class="cls-4" cx="43.65" cy="37.16" rx="2.66" ry="3.85"/>
      <ellipse class="cls-4" cx="45.04" cy="44.04" rx="4.44" ry="4.94"/>
      <ellipse class="cls-4" cx="42.43" cy="40.56" rx="1.55" ry="1.73"/>
      <ellipse class="cls-4" cx="45.38" cy="49.31" rx="1.9" ry="1.42"/>
      <ellipse class="cls-3" cx="6.9" cy="14.18" rx="3.16" ry="3.31"/>
      <circle class="cls-3" cx="9.54" cy="10.22" r="3.52"/>
      <ellipse class="cls-3" cx="6.34" cy="10.62" rx="1.36" ry="1.15"/>
      <ellipse class="cls-3" cx="13.58" cy="9.55" rx="1.98" ry="1.33"/>
      <ellipse class="cls-3" cx="6.43" cy="18.27" rx="3.11" ry="6.16"/>
      <ellipse class="cls-3" cx="8.42" cy="25.04" rx="2.17" ry="2.82"/>
      <ellipse class="cls-3" cx="10.61" cy="27.94" rx="2.3" ry="2.91"/>
      <ellipse class="cls-3" cx="13.62" cy="30.48" rx="2.66" ry="3.08"/>
      <ellipse class="cls-3" cx="18.55" cy="33.51" rx="6.15" ry="4.95"/>
      <ellipse class="cls-3" cx="23.84" cy="31.52" rx="2.95" ry="4.02"/>
      <ellipse class="cls-3" cx="23.97" cy="39.21" rx="10.87" ry="7.56"/>
      <ellipse class="cls-3" cx="30.05" cy="30.64" rx="1.6" ry="2.78"/>
      <ellipse class="cls-3" cx="28.61" cy="31.85" rx="1.1" ry="1.73"/>
      <ellipse class="cls-3" cx="33.09" cy="32.27" rx="3.97" ry="3.8"/>
      <ellipse class="cls-3" cx="38.38" cy="32.52" rx="3.53" ry="3.91"/>
      <ellipse class="cls-3" cx="41.24" cy="30.34" rx="2.74" ry="2.48"/>
      <ellipse class="cls-3" cx="42.93" cy="28.37" rx="2.35" ry="1.7"/>
      <ellipse class="cls-3" cx="44.64" cy="25.8" rx="2.19" ry="2.56"/>
      <ellipse class="cls-3" cx="41.05" cy="10.01" rx="2.48" ry="1.31"/>
      <ellipse class="cls-3" cx="44.42" cy="10.39" rx="3.57" ry="3.79"/>
      <ellipse class="cls-3" cx="48.16" cy="17.06" rx="3.27" ry="5.94"/>
      <ellipse class="cls-3" cx="45.23" cy="14.53" rx="1.24" ry="1.49"/>
      <ellipse class="cls-3" cx="48.18" cy="11.08" rx="1.16" ry="1.79"/>
      <ellipse class="cls-3" cx="47.09" cy="22.7" rx="2.61" ry="3"/>
      <ellipse class="cls-3" cx="36.28" cy="39.51" rx="4.42" ry="6.69"/>
      <ellipse class="cls-3" cx="40.12" cy="36.25" rx=".94" ry="1.77"/>
      <ellipse class="cls-3" cx="36.01" cy="46.69" rx="5.78" ry="4.4"/>
      <ellipse class="cls-3" cx="39.92" cy="43.37" rx=".73" ry="1.18"/>
      <ellipse class="cls-3" cx="40.45" cy="50.28" rx="3.19" ry="2.83"/>
      <ellipse class="cls-3" cx="28.21" cy="48.58" rx="3.96" ry="5.1"/>
      <circle class="cls-3" cx="32.31" cy="50.08" r="1.23"/>
      <ellipse class="cls-3" cx="27.28" cy="52.1" rx="3.42" ry="3.25"/>
      <circle class="cls-3" cx="23.35" cy="48.89" r="3.45"/>
      <ellipse class="cls-3" cx="18.82" cy="47.83" rx="4.16" ry="3.57"/>
      <ellipse class="cls-3" cx="16.01" cy="44.78" rx="3.11" ry="3.26"/>
      <ellipse class="cls-3" cx="14.9" cy="48.92" rx="2.93" ry="3.31"/>
      <ellipse class="cls-3" cx="13.42" cy="50.9" rx="2.25" ry="2.52" transform="translate(-2.14 .61) rotate(-2.43)"/>
      <ellipse class="cls-3" cx="11.37" cy="51.29" rx="1.03" ry=".96"/>
      <g>
        <path d="M29.57,35.09c-.33-.33-.86-.33-1.19,0-.68.68-1.86.68-2.54,0-.33-.33-.86-.33-1.19,0s-.33.86,0,1.19c.66.66,1.53,1.02,2.46,1.02s1.8-.36,2.46-1.02c.33-.33.33-.86,0-1.19Z"/>
        <ellipse class="cls-1 eye eye-l" cx="17.71" cy="18.17" rx="8.76" ry="7.75"/>
        <path d="M24.65,40.38c-.7.7-1.84.7-2.54,0-.33-.33-.86-.33-1.19,0-.33.33-.33.86,0,1.19.68.68,1.57,1.02,2.46,1.02s1.78-.34,2.46-1.02c.33-.33.33-.86,0-1.19-.33-.33-.86-.33-1.19,0Z"/>
        <path d="M22.12,35.09c-.33-.33-.86-.33-1.19,0-.68.68-1.86.68-2.54,0-.33-.33-.86-.33-1.19,0-.33.33-.33.86,0,1.19h0c.66.66,1.53,1.02,2.46,1.02s1.8-.36,2.45-1.02c.33-.33.33-.86,0-1.19Z"/>
        <path d="M32.1,40.38c-.68.68-1.86.68-2.54,0-.33-.33-.86-.33-1.19,0-.33.33-.33.86,0,1.19.66.66,1.53,1.02,2.46,1.02s1.8-.36,2.46-1.02c.33-.33.33-.86,0-1.19-.33-.33-.86-.33-1.19,0Z"/>
        <path d="M35.83,35.09c-.68.68-1.86.68-2.54,0-.33-.33-.86-.33-1.19,0-.33.33-.33.86,0,1.19.66.66,1.53,1.02,2.46,1.02s1.8-.36,2.46-1.02c.33-.33.33-.86,0-1.19-.33-.33-.86-.33-1.19,0Z"/>
        <ellipse class="cls-1" cx="16.11" cy="23.73" rx="5.52" ry="5.05"/>
        <ellipse class="cls-1" cx="21.48" cy="26.34" rx="2.7" ry="2.23"/>
        <ellipse class="cls-1" cx="19.44" cy="27.86" rx="1.73" ry="1.52"/>
        <circle class="eye eye-l" cx="18.77" cy="18.68" r="2.86"/>
        <ellipse class="cls-1" cx="27.11" cy="20.33" rx="4.75" ry="2.84"/>
        <ellipse class="cls-1 eye eye-r" cx="37.13" cy="18.48" rx="7.36" ry="8.73"/>
        <circle class="eye eye-r" cx="35.45" cy="18.68" r="2.86" transform="translate(4.63 44.28) rotate(-67.5)"/>
        <ellipse class="cls-1" cx="30.61" cy="22.49" rx=".95" ry=".76"/>
        <ellipse class="cls-1" cx="29.08" cy="16.39" rx="1.63" ry="2.09"/>
        <ellipse class="cls-1" cx="31.33" cy="13.74" rx="2.26" ry="1.97"/>
        <ellipse class="cls-1" cx="35.64" cy="25.7" rx="5.83" ry="3.21"/>
        <ellipse class="cls-1" cx="42.19" cy="25.02" rx="1.15" ry="1.03"/>
        <path d="M51.88,18.71h0c.18-1.55.09-3.13-.27-4.66-.67-2.83-2.27-5.44-4.52-7.44,1.67-.85,3.2-1.93,4.45-3.41.03-.03.05-.07.07-.1.73-1.18.27-2.07-.39-2.52-2.27-1.52-11.67.21-14.21,1.64C30.44.16,23.78.16,17.21,2.23,14.68.8,5.28-.92,3.01.59c-.67.44-1.12,1.34-.39,2.52.02.04.05.07.07.1,1.25,1.47,2.78,2.55,4.45,3.41-2.25,2-3.85,4.61-4.52,7.44-.36,1.53-.45,3.11-.27,4.66-2.44,6.66-3.85,17.38.24,25.72,2.37,4.83,6.22,8.17,11.42,10-.03.58.07,1.16.33,1.73.35.76.98,1.34,1.7,1.67.28.11,1.48.54,2.65-.04.35-.17.62-.4.81-.6.49.5,1.15.85,1.87.92.1,0,.19.01.28.01,1.25,0,2.47-.78,3.02-1.97.02-.05.03-.1.05-.14,1.58-.01,3.16-.01,4.75,0,.02.05.03.1.05.14.6,1.28,1.96,2.08,3.31,1.96.72-.07,1.38-.41,1.87-.92.19.2.45.42.8.59,1.17.58,2.37.17,2.67.05,0,0-.02.02-.03.03,0,0,.02,0,.03,0,0,0,0-.01,0-.02.74-.33,1.37-.92,1.73-1.68.24-.52.34-1.12.31-1.72,5.21-1.82,9.06-5.18,11.42-10.01,4.08-8.33,2.68-19.06.23-25.72ZM4.01,2.17h0c-.06-.1-.08-.16-.1-.17.27-.23,1.85-.65,6.15.02,3.28.51,5.97,1.34,6.33,1.62.21.3.6.42.94.31,6.48-2.12,13.06-2.12,19.54,0,.35.12.68.05.89-.25.41-.34,3.11-1.17,6.38-1.68,4.45-.7,5.99-.22,6.15-.08,0,0,0,.07-.09.23-2.55,2.97-6.45,4.14-10.57,5.38-4.93,1.48-10.01,3.01-12.53,7.89-2.52-4.88-7.6-6.41-12.53-7.89-4.12-1.24-8.01-2.41-10.57-5.38ZM31.4,23.55h0c-.33-.83-1.24-.96-1.59-1.01-.93-.13-4.46-.13-5.39,0-.34.05-1.25.18-1.59,1.01-.23.57-.01,1.13.09,1.39.22.54.52,1.21.86,1.91-1.43.91-3.07,1.39-4.79,1.39-4.93,0-8.94-4.01-8.94-8.94,0-4.53,3.49-8.4,7.97-8.88,3.76,1.37,6.93,3.28,8.29,7.48.11.35.43.58.8.58s.69-.23.8-.58c1.35-4.2,4.53-6.11,8.29-7.48,4.48.48,7.97,4.35,7.97,8.88,0,4.93-4.01,8.94-8.94,8.94-1.71,0-3.36-.48-4.79-1.39.34-.7.65-1.37.86-1.91.11-.29.32-.82.1-1.39ZM24.45,24.23s.12-.02.2-.04c.78-.11,4.13-.11,4.92,0,.09.01.15.03.2.04-.01.04-.03.07-.03.09-.56,1.42-1.82,3.81-2.63,5.3-.81-1.49-2.07-3.88-2.63-5.3h0s-.02-.06-.03-.09ZM4.09,43.69h0c-3.37-6.86-2.76-15.51-1-21.81.16.45.34.89.55,1.32.99,2.05,2.47,3.83,3.89,5.55,1.11,1.33,2.25,2.71,3.12,4.17,3.18,5.34,2.7,12.35-1.11,17.32-2.3-1.68-4.13-3.86-5.45-6.55ZM23.17,55.45c-.29.63-.99,1.05-1.63.99-.62-.06-1.17-.62-1.19-1.2-.01-.45-.38-.82-.84-.82s-.83.36-.84.82c-.02.58-.57,1.14-1.19,1.2-.62.05-1.33-.36-1.63-.99-.26-.56-.26-1.1-.01-1.65.4-.88,1.43-1.68,2.57-2.01,1.43-.41,3.65.13,4.55,1.54.12.19.21.39.27.59.17.52.14,1.08-.07,1.53ZM38.38,55.44c-.29.63-.99,1.05-1.63.99-.62-.06-1.17-.62-1.19-1.2-.01-.45-.38-.82-.84-.82s-.83.36-.84.82c-.02.58-.57,1.14-1.19,1.2-.63.06-1.33-.36-1.63-.99-.26-.56-.26-1.1-.01-1.65.4-.88,1.43-1.68,2.57-2.01,1.43-.41,3.65.13,4.55,1.54.12.19.21.39.27.59.16.53.14,1.08-.07,1.53h0ZM39.81,52.8c-.06-.13-.13-.25-.2-.37h0c-1.36-2.14-4.4-2.84-6.43-2.26-1.61.46-3.03,1.61-3.63,2.93-.19.41-.27.82-.31,1.24-1.41,0-2.81,0-4.21,0-.02-.31-.07-.61-.16-.91-.11-.35-.26-.68-.46-1-1.36-2.14-4.4-2.84-6.43-2.26-1.49.43-2.81,1.45-3.48,2.64-1.27-.45-2.44-1-3.53-1.65,4.15-5.5,4.65-13.22,1.15-19.1-.94-1.57-2.12-3-3.27-4.38-1.42-1.72-2.77-3.34-3.67-5.21-1.21-2.5-1.53-5.35-.9-8.03h0c.64-2.68,2.21-5.16,4.45-6.97.03-.03.05-.07.08-.1,1.71.71,3.52,1.25,5.31,1.79.32.1.64.19.96.29-3.92,1.58-6.68,5.45-6.68,9.85,0,5.85,4.77,10.62,10.62,10.62,1.98,0,3.88-.54,5.54-1.57.9,1.74,1.78,3.31,1.84,3.42.15.26.43.43.73.43s.58-.16.73-.43c.06-.11.94-1.68,1.84-3.42,1.66,1.03,3.56,1.57,5.54,1.57,5.85,0,10.62-4.76,10.62-10.62,0-4.4-2.77-8.27-6.68-9.85.32-.1.64-.19.96-.29,1.78-.54,3.59-1.08,5.31-1.79.03.03.05.07.08.1,2.24,1.81,3.82,4.29,4.45,6.97.63,2.68.31,5.53-.9,8.03-.9,1.87-2.25,3.49-3.67,5.21-1.15,1.38-2.33,2.81-3.27,4.38-3.51,5.89-3,13.61,1.15,19.11-1.07.64-2.23,1.18-3.48,1.63ZM50.13,43.69h0c-1.32,2.69-3.15,4.87-5.45,6.56-3.81-4.97-4.29-11.98-1.11-17.32.87-1.46,2.01-2.84,3.12-4.17,1.43-1.72,2.9-3.5,3.89-5.55.21-.43.39-.87.55-1.32,1.76,6.31,2.36,14.95-1,21.81Z"/>
      </g>
    </g>
  </g>
</svg>