<?xml version="1.0" encoding="UTF-8"?>
<svg id="Layer_2" data-name="Layer 2" xmlns="http://www.w3.org/2000/svg" viewBox="0 0 58.18 53.93">
  <defs>
    <style>
      .cls-1 {
        fill: #8b4513;
      }

      .cls-2 {
        fill: tan;
      }

      .cls-3 {
        fill: #fff;
      }

      .cls-4 {
        fill: #00a1d4;
        stroke: #000;
        stroke-miterlimit: 10;
      }
    </style>
  </defs>
  <g id="SLIME_Artboard" data-name="SLIME Artboard">
    <g id="Monkey_head" data-name="Monkey head">
      <ellipse class="cls-1" cx="41.92" cy="48.63" rx="3.09" ry=".87" transform="translate(-16.69 22.41) rotate(-25.13)"/>
      <ellipse class="cls-1" cx="45" cy="44.14" rx="4.39" ry="1.18" transform="translate(-11.04 72.99) rotate(-71.69)"/>
      <ellipse class="cls-1" cx="50.53" cy="41.52" rx="4.24" ry="4.17"/>
      <ellipse class="cls-1" cx="24.51" cy="48.23" rx="4.82" ry="4.97"/>
      <ellipse class="cls-1" cx="33.93" cy="48.74" rx="5.84" ry="4.35"/>
      <ellipse class="cls-1" cx="29.42" cy="45.42" rx="8.64" ry="7.24"/>
      <ellipse class="cls-1" cx="38.46" cy="35.1" rx="8.57" ry="3.27" transform="translate(-11.53 20.51) rotate(-26.12)"/>
      <ellipse class="cls-1" cx="51.48" cy="24.22" rx="5.82" ry="7.15"/>
      <ellipse class="cls-1" cx="45.94" cy="22.02" rx="4.35" ry="11.54"/>
      <ellipse class="cls-1" cx="21.15" cy="33.55" rx="4.64" ry="12.48" transform="translate(-18.3 37.64) rotate(-63.69)"/>
      <ellipse class="cls-1" cx="6.65" cy="24.24" rx="5.84" ry="7.05"/>
      <ellipse class="cls-1" cx="12.86" cy="18.56" rx="9.15" ry="5.18" transform="translate(-9.16 23.55) rotate(-68.04)"/>
      <ellipse class="cls-1" cx="28.96" cy="12.08" rx="17.25" ry="9.22"/>
      <ellipse class="cls-2" cx="29.15" cy="32.49" rx="15.48" ry="4.87"/>
      <g>
        <ellipse class="cls-2" cx="19.49" cy="23.36" rx="10.2" ry="11.61"/>
        <ellipse class="cls-2" cx="38.66" cy="23.49" rx="9.98" ry="11.26"/>
      </g>
      <ellipse class="cls-3" cx="16.66" cy="22.55" rx="1.03" ry=".68" transform="translate(-10.9 27.69) rotate(-64.11)"/>
      <path d="M57.8,21.12l.02-.02c-.94-2.93-3.72-4.87-6.85-4.28-.04,0-.09,0-.14,0-.04-.1-.07-.18-.1-.27-1.11-3.15-2.81-5.94-5.24-8.24-3.56-3.37-7.82-5.33-12.63-6.16-.59-.1-1.18-.17-1.89-.27.28-.34.5-.61.73-.87.19-.21.27-.45.11-.7-.16-.27-.43-.38-.72-.27-.2.07-.41.19-.54.35-.27.31-.51.66-.73,1-.31.5-.31.51-.98.39.05-.11.1-.21.16-.3.21-.38.19-.63-.07-.84-.26-.2-.61-.18-.87.11-.21.24-.41.51-.54.8-.13.27-.3.36-.58.39-.59.05-1.17.13-1.75.23-4.1.72-7.83,2.31-11.08,4.92-3.09,2.48-5.33,5.6-6.58,9.39-.1.3-.22.32-.52.3-.65-.05-1.33-.11-1.96.02-2.52.5-4.05,2.14-4.7,4.53-.78,2.88-.15,5.57,1.59,7.96,1.89,2.61,4.68,3.58,7.7,2.52.21-.07.26.05.36.17.52.65,1,1.34,1.58,1.93,2.6,2.69,5.73,4.5,9.32,5.53.72.21,1.45.39,2.24.59-.21.27-.39.5-.58.73-1.08,1.31-2,2.72-2.68,4.29-.7,1.65-.95,3.32-.47,5.02.19.38.35.76.49,1.16.24.27.47.57.66.91.24.41.4.82.54,1.23.21.03.42.07.64.12.86.18,1.69.27,2.49-.21.09-.05.26-.04.36,0,.59.31,1.18.48,1.77.49-.01,0-.03,0-.04,0,.1,0,.2.02.3.03.03,0,.06-.02.09-.03-.11,0-.21,0-.32,0,.14,0,.28,0,.42-.02.08-.02.15-.03.23-.04.37-.07.75-.2,1.12-.41.08-.04.17-.1.25-.1.54-.02,1.09-.02,1.63-.02.07,0,.16.04.22.08.32.18.64.37,1,.59.17,0,.35.03.52.06.03,0,.06,0,.09,0,.11,0,.22.01.33.02.09,0,.18-.01.26-.01.04,0,.07,0,.11,0,.07-.03.14-.05.21-.07.12-.02.25-.03.37-.05.23-.11.66-.34,1.1-.54.07-.04.21,0,.27.04.69.48,1.48.53,2.23.32.05-.01.1-.02.16-.03.08-.05.15-.11.24-.15.09-.05.18-.09.28-.14.16-.15.33-.28.51-.41.15-.25.33-.48.53-.68.07-.09.14-.19.22-.28.01-.01.02-.02.03-.03,0,0,0,0-.01,0,.14-.2.09-.46.43-.45l.09-.44c-.03-.39.18-.32.34-.31.46.02.91-.02,1.35-.08.02,0,.05-.02.06-.02.07-.02.17-.04.28-.05.12-.03.24-.05.36-.06.5-.13,1-.31,1.47-.55,1.58-.82,2.56-2.16,3.21-3.78.27-.68.51-1.36.77-2.04.2.32.35.64.57.92,1.54,1.98,4.89,1.96,6.5-.02,1.35-1.67,1.31-4.3-.09-6.06-2.17-2.71-6.43-2.54-8.45.33-.82,1.17-1.21,2.51-1.66,3.84-.33.98-.64,1.99-1.12,2.9-.58,1.12-1.53,1.81-2.88,1.77-.22,0-.28-.09-.33-.29-.2-.79-.38-1.6-.67-2.36-.66-1.71-1.72-3.19-2.91-4.58-.12-.14-.24-.3-.38-.48.5-.12.95-.23,1.39-.35.45-.12.89-.25,1.33-.39,3.89-1.24,7.1-3.43,9.52-6.75.16-.22.28-.57.49-.65.23-.08.55.09.83.15,1.54.34,3.05.28,4.46-.46,1.79-.93,2.96-2.42,3.71-4.25.83-2.02,1.12-4.1.44-6.23ZM39.88,49h0c2,.05,3.34-.98,4.14-2.71.51-1.12.86-2.32,1.27-3.48.39-1.11.79-2.23,1.6-3.13,1.09-1.19,2.45-1.66,4.02-1.3,1.5.34,2.43,1.34,2.82,2.81.52,1.91-.55,3.66-2.4,4-1.14.21-2.27-.27-2.82-1.2-.68-1.15-.14-2.49,1.12-2.75.89-.19,1.75.71,1.53,1.59-.1.38-.35.46-.68.25,0,0-.02-.01-.03-.02-.24-.19-.49-.39-.79-.11-.2.18-.18.53.04.87.52.83,1.67.83,2.32,0,.73-.93.5-2.48-.47-3.28-1.07-.88-2.64-.78-3.7.24-.74.71-1.94,3.14-2.05,3.41-.25.59-.48,1.18-.75,1.75-.86,1.78-2.17,3.01-4.16,3.4-.33.06-.67.07-1,.1-.09,0-.18,0-.29-.01-.02-.23-.08-.44.27-.43ZM3.74,29.34h0c-1.86-1.97-2.7-4.32-2.29-7.03.31-2.48,2.7-4.78,5.3-4.23.22.05.31.12.26.37-.12.67-.22,1.34-.32,1.98-1.22-.18-2.66.28-3.68,1.21-.16.14-.35.33-.18.52.09.1.35.09.52.07.51-.05,1.54-.92,2.05-.96.22-.02.45.08.67.16.38.15.6.38.6.86,0,1.16.12,2.31.46,3.43.02.07.03.16.05.32-.24-.07-.43-.13-.62-.19-.21-.07-.41-.1-.56.11-.16.23-.05.42.09.59.29.32.65.48,1.07.48.21,0,.31.08.38.27.09.27,1.25,2.82,1.52,3.32-1.88.74-4.02.2-5.33-1.28ZM23.57,52.32h0c-.16-.34-.3-.64-.45-.93-.11-.22-.33-.36-.54-.21-.12.09-.19.35-.18.53.02.23.13.45.2.68-.45.09-.73-.05-.86-.42-.06-.17-.1-.36-.13-.54-.05-.28-.12-.51-.46-.55-.1-.01-.21-.2-.27-.32-.52-1.21-.62-2.46-.3-3.73.31-1.21.9-2.29,1.57-3.34v4.09s-.07.03-.08.02c-.11-.15-.23-.37-.42-.2-.11.09-.14.36-.09.52.1.3.22.62.62.66.06,0,.14.12.16.2.32,1.2.8,2.34,1.55,3.41-.16.07-.25.11-.36.15ZM29.65,52.65h0s-.62,0-.62,0c-.07,0-.13-.01-.22-.02.1-.35.38-.29.59-.28.11,0,.2.12.3.19-.02.04-.04.07-.05.11ZM29.07,51.68h0c.06-.08.11-.15.21-.27.14.11.22.18.3.25-.09.05-.17.14-.26.14-.08,0-.17-.08-.25-.12ZM34.21,51.09h0c-.15.2-.29.38-.16.68.12.29-.23.6-.66.63.06-.18.16-.35.15-.52,0-.14-.09-.34-.2-.41-.07-.05-.31.05-.39.15-.14.18-.21.41-.31.61-.21.46-.33.51-.88.31.12-.3.27-.6.37-.91.04-.14.04-.33-.02-.45-.12-.23-.46-.19-.63.07-.18.29-.32.61-.49.92-.29-.15-.29-.4-.22-.65.23-.91.48-1.81.68-2.73.21-.95.36-1.91.54-2.86.01-.05.02-.11.02-.17.05-.49-.07-.75-.39-.81-.3-.05-.52.15-.63.64-.39,1.63-.77,3.27-1.15,4.9-.09.37-.38.53-.73.41-.07-.02-.14-.14-.16-.23-.41-1.61-.82-3.23-1.22-4.84-.05-.2-.07-.43-.18-.59-.11-.14-.33-.3-.48-.29-.15.02-.34.22-.41.39-.07.17-.03.39,0,.58.32,1.42.64,2.84.97,4.26.09.39.21.78.3,1.18.06.27.06.54-.26.73-.06-.11-.12-.21-.18-.32-.1-.21-.17-.44-.31-.62-.09-.11-.31-.21-.42-.18-.12.04-.23.25-.25.4-.02.17.07.36.12.53.05.16.12.32.19.48-.45.23-.64.16-.82-.27-.06-.14-.11-.28-.17-.42-.09-.21-.21-.36-.48-.28-.27.09-.25.3-.21.51.02.12.05.24.08.37-.41,0-.59-.23-.58-.6,0-.19-.04-.41-.14-.57-.72-1.19-1.11-2.49-1.25-3.86-.2-1.86-.11-3.7.47-5.49.14-.43.35-.83.53-1.24.08-.19.21-.23.42-.2,3.1.54,6.2.52,9.29.01.33-.05.48.05.62.32.62,1.2.84,2.49.95,3.82.16,2.05.02,4.05-.93,5.92-.12.23-.26.46-.41.68ZM36.38,48.84h0c.03-.1.14-.21.24-.26.22-.11.58-.75.52-1-.05-.23-.21-.23-.5,0v-4.04c.1.16.2.31.3.47.54.92,1.02,1.87,1.27,2.91.29,1.21.23,2.41-.22,3.58-.07.19-.16.32-.39.38-.14.04-.27.23-.34.38-.07.16-.07.36-.11.54-.14.55-.4.71-1,.61.11-.27.21-.5.29-.74.08-.25.08-.5-.21-.61-.28-.11-.43.06-.54.29-.11.23-.23.45-.31.7-.1.32-.25.31-.5.11.11-.18.21-.35.32-.52.55-.87.94-1.8,1.2-2.79ZM42.34,35.98h0c-2.05,1.36-4.36,2.12-6.73,2.7-2.06.5-4.16.8-6.23.79-2.79,0-5.44-.52-8.05-1.28-2.41-.69-4.65-1.7-6.63-3.24-4.61-3.58-6.89-8.3-6.72-14.15.09-2.82,1.11-5.37,2.58-7.75,1.08-1.74,2.41-3.28,3.98-4.6,2.66-2.23,5.69-3.73,9.04-4.61,4.71-1.23,9.32-.85,13.82.93,4.85,1.91,8.65,5.05,11.03,9.75,1.59,3.12,2.29,6.43,1.59,9.92-.97,4.9-3.52,8.77-7.69,11.54ZM56.82,24.4h0c-.29,2.17-1.2,4.04-2.92,5.47-1.29,1.07-3.29,1.4-4.75.77.24-.47,1.12-2.34,1.26-2.72.04-.1.08-.19.11-.29.08-.36.25-.55.67-.58.29-.02.57-.23.82-.4.21-.14.27-.43.09-.61-.11-.12-.36-.14-.55-.14-.17,0-.34.11-.54.19,0-.11,0-.18.02-.24.38-1.23.51-2.49.53-3.77,0-.24.09-.38.3-.48.66-.35,1.94,0,2.66.16.08.02.16.05.23.06.23.04.51.24.66-.05.15-.3-.14-.49-.35-.64-.8-.57-2.27-1.01-3.18-.7-.11.04-.21.08-.34.12-.13-.8-.25-1.57-.38-2.4.26-.04.51-.11.77-.12,1.47-.05,2.64.57,3.59,1.64,1.2,1.36,1.54,2.99,1.3,4.73Z"/>
      <path d="M37.38,11.14c-3.02.39-5.5,1.73-7.21,4.3-.48.71-.84,1.5-1.24,2.23-.19-.37-.39-.8-.62-1.21-2.18-3.9-5.5-5.68-9.94-5.34-4.41.34-8.06,3.51-9.03,7.8-.87,3.84-.27,7.5,1.62,10.94,1.06,1.93,2.48,3.57,4.3,4.84.42.29.62.32.8.04.25-.37-.11-.51-.3-.7-.44-.43-.92-.81-1.35-1.25-2.97-3.03-4.49-6.66-4.42-10.92.04-2.43.76-4.62,2.45-6.43,2.11-2.25,4.73-3.34,7.8-3.04,3.72.36,6.17,2.5,7.56,5.91.21.52.35,1.08.53,1.61.1.29.32.46.63.46s.55-.17.67-.47c.05-.12.07-.24.1-.37.77-3.38,2.75-5.66,6.07-6.74,5.39-1.76,11.25,1.73,12.19,7.33.75,4.45-.48,8.39-3.34,11.83-.67.8-1.47,1.5-2.23,2.23-.29.28-.29.66.05.73.16.04.38-.06.53-.16,1.31-.87,2.36-1.99,3.27-3.27,1.82-2.54,2.8-5.38,2.94-8.5.1-2.24-.2-4.41-1.26-6.43-2.03-3.82-6.3-6.02-10.59-5.46h0Z"/>
      <path class="cls-4 eye eye-r" d="M44.53,23.78c-.41-2.2-1.66-3.77-3.84-4.42-2.11-.63-4.01-.14-5.51,1.5-1.52,1.65-2.02,3.6-1.35,5.76.67,2.17,2.7,3.51,5.16,3.52,3.67.01,6.2-2.86,5.54-6.35h0ZM36.24,23.62c-.34.16-.72-.04-.8-.41v-.02c-.12-.49.2-1.1.58-1.42.39-.37,1.13-.38,1.2.24.07.61-.46,1.39-.99,1.61h0ZM41.77,22.25c-.07.52-.38.86-.86,1.04-1.34.52-2.82-.31-3.08-1.73-.1-.55.14-.93.68-1.06.18-.04.37-.05.52-.07.8.07,1.55.2,2.19.68.37.28.62.63.55,1.12h0Z"/>
      <path class="cls-4 eye eye-l" d="M18.93,19.11c-4.55.23-6.57,5.23-4.53,8.47,1.14,1.8,2.89,2.5,4.72,2.55,1.61-.02,2.86-.39,3.87-1.32,1.43-1.31,1.91-2.97,1.63-4.85-.35-2.36-2.29-5.02-5.69-4.85h0ZM17.19,22.83c-.36.63-1.29,1.16-1.59.28v-.02c-.16-.7.42-1.62,1.11-1.81.99-.17.94.91.48,1.54h0ZM22.12,22.35c-.11.55-.48.86-1,.99-1.55.42-2.53-.54-2.86-1.7-.22-.79.23-1.22,1.28-1.2.64.04,1.36.2,1.98.64.43.31.71.71.6,1.27h0Z"/>
      <path d="M32.28,28.88c-.36-.01-.62.33-.7.79-.04.27-.07.55-.15.82-.1.32-.33.53-.67.58-.34.05-.59-.11-.77-.36-.14-.21-.24-.45-.37-.66-.24-.42-.61-.43-.86-.02-.13.21-.23.46-.38.66-.4.54-.97.52-1.32-.05-.11-.18-.16-.41-.21-.62-.05-.19-.05-.39-.1-.58-.12-.47-.64-.71-1.04-.5-.31.16-.34.44-.14.71.09.12.14.3.16.46.09.88.46,1.58,1.27,1.97.78.38,1.48.16,2.11-.4.02-.02.04-.02.1-.05.11.08.21.16.3.24.86.66,2.04.48,2.66-.39.29-.41.43-.86.44-1.37,0-.15.04-.33.12-.45.12-.17.27-.35.1-.52-.14-.14-.37-.25-.57-.25h0Z"/>
      <path d="M27.97,28.18c.25-.06.34.02.46.21.32.49,1.2.45,1.52-.05.04-.05.08-.09.14-.13.08-.06.2-.05.26.03h0c.17-.13.41-.23.48-.4.07-.16,0-.43-.11-.59-.09-.16-.28-.28-.46-.35-.83-.34-1.65-.28-2.43.18-.16.1-.31.29-.39.46-.14.34.17.73.52.64h0Z"/>
      <ellipse class="eye eye-l" cx="20.12" cy="21.83" rx="1.91" ry="1.4"/>
      <ellipse class="eye eye-r" cx="39.85" cy="21.84" rx="1.73" ry="1.4"/>
      <ellipse class="cls-3" cx="36.34" cy="22.66" rx=".83" ry=".54" transform="translate(-6.48 23.19) rotate(-32.65)"/>
    </g>
  </g>
</svg>