<?xml version="1.0" encoding="UTF-8"?>
<svg id="Layer_2" data-name="Layer 2" xmlns="http://www.w3.org/2000/svg" viewBox="0 0 56.91 53.84">
  <defs>
    <style>
      .cls-1, .cls-2 {
        fill: #fff;
      }

      .cls-3 {
        fill: #00a1d4;
        stroke-width: .75px;
      }

      .cls-3, .cls-2 {
        stroke: #000;
        stroke-miterlimit: 10;
      }

      .cls-2 {
        stroke-width: .25px;
      }

      .cls-4 {
        fill: #f28c38;
      }
    </style>
  </defs>
  <g id="SLIME_Artboard" data-name="SLIME Artboard">
    <g id="Kitten_head" data-name="Kitten head">
      <ellipse class="cls-4" cx="50.69" cy="39.62" rx="4.93" ry="8.76"/>
      <ellipse class="cls-4" cx="50.06" cy="47.35" rx="2.52" ry="1.62"/>
      <ellipse class="cls-4" cx="46.73" cy="46.06" rx="2.43" ry="4" transform="translate(-16.57 28.77) rotate(-29.3)"/>
      <ellipse class="cls-4" cx="44.84" cy="47.57" rx="1.56" ry="2.88" transform="translate(-5.87 6.31) rotate(-7.56)"/>
      <ellipse class="cls-4" cx="33.75" cy="51.39" rx="2.75" ry="1.77"/>
      <ellipse class="cls-4" cx="39.81" cy="48.13" rx="5.5" ry="4.21" transform="translate(-19.69 29.1) rotate(-32.67)"/>
      <ellipse class="cls-4" cx="12.66" cy="48.53" rx="4.37" ry="3.45"/>
      <ellipse class="cls-4" cx="26.41" cy="41.89" rx="17.52" ry="11.11"/>
      <ellipse class="cls-4" cx="11.46" cy="28.42" rx="10.5" ry="9.98" transform="translate(-18.06 20.18) rotate(-52.44)"/>
      <ellipse class="cls-4" cx="24.8" cy="22.88" rx="21.36" ry="17.31"/>
      <ellipse class="cls-4" cx="8.55" cy="9.82" rx="5.49" ry="5.84"/>
      <ellipse class="cls-4" cx="36.78" cy="9.21" rx="7.89" ry="7.26" transform="translate(1.66 23.5) rotate(-36.21)"/>
      <ellipse class="cls-4" cx="24.38" cy="10.9" rx="13.85" ry="6.93"/>
      <path d="M56.68,37.21c-.42-2.23-1.36-4.21-3.06-5.78-2.69-2.46-6.84-1.45-8.08,1.98-.46,1.26-.38,2.54-.2,3.84.1.7.18,1.4.19,2.1.02.81-.27,1.55-.73,2.23-.01-.08-.02-.16-.04-.23-.39-2.33-1.16-4.49-2.62-6.38-.29-.38-.3-.38.05-.71,1.27-1.18,2.28-2.55,2.98-4.14,1.5-3.38,1.77-6.89,1.15-10.49-.29-1.71-.82-3.35-1.78-4.81-.18-.27-.24-.52-.19-.83.39-2.35.38-4.7-.02-7.04-.25-1.51-.63-2.98-1.37-4.34-.67-1.24-1.71-1.9-3.11-1.9-.75,0-1.53.08-2.26.26-2.39.59-4.52,1.73-6.46,3.24-.25.19-.46.3-.77.13-.22-.12-.48-.18-.72-.25-2.34-.71-4.74-.89-7.17-.7-2.78.22-5.42.91-7.87,2.27-.18.1-.3.09-.47,0-.53-.3-1.05-.62-1.61-.88-1.91-.89-3.91-1.4-6.04-1.29-1.37.07-2.44.62-2.96,1.96-.2.5-.36,1.03-.44,1.56-.42,2.8-.09,5.53.8,8.2.09.26.05.45-.07.68-.26.46-.52.93-.73,1.41-1.1,2.51-1.45,5.14-1.3,7.86,0,.14-.05.33-.15.43-1.38,1.38-1.8,3.07-1.57,4.94.32,2.51,1.71,4.43,3.61,6,1.41,1.17,3.03,1.95,4.77,2.48.21.06.37.11.32.42-.32,1.96-.28,3.91.04,5.87.03.18,0,.29-.18.38-1.64.8-2.2,2.77-1.24,4.32.06.09.11.19.2.34-.21.02-.37.01-.52.04-.59.1-1.18.19-1.76.34-.14.04-.33.27-.33.42,0,.14.19.33.34.41.21.11.46.17.7.2,1.77.21,3.54.41,5.3.62.21.02.44.02.65.05.69.12,1.38.32,2.07.39,3.37.34,6.75.55,10.14.57,1.48,0,2.96-.04,4.43-.1.43-.02.8.03,1.21.16.46.16.93.27,1.41.33,1.52.2,3.02.04,4.52-.24.87-.17,1.73-.44,2.61-.57,1.92-.29,3.85-.52,5.77-.79.5-.07,1-.18,1.5-.29.24-.05.49-.14.5-.45,0-.28-.21-.38-.45-.46-.09-.03-.18-.07-.27-.1.15-.08.3-.1.44-.11,1.34-.13,2.65-.38,3.92-.86,2.23-.84,4.06-2.18,5.36-4.21,1.67-2.62,2.13-5.46,1.57-8.48h0ZM47.48,33.25c1.16-1.69,3.23-2.01,4.84-.75,1.05.82,1.74,1.91,2.21,3.13.04.12-.03.34-.13.44-1.11,1.06-2.45,1.57-3.48,1.58-1.69,0-2.79-.29-3.77-.96-.11-.08-.21-.24-.23-.38-.16-1.08-.07-2.13.56-3.06h0ZM12.76,6.54s.04.05.05.07c-.89.65-1.79,1.3-2.69,1.96.77-.82,1.62-1.53,2.63-2.03h0ZM11.33,5.83c.34.14.67.29.98.43-.89.71-1.73,1.39-2.62,2.1-.14-.16-.33-.39-.54-.65.55-.75,1.23-1.34,1.99-1.84.05-.04.14-.05.2-.02h0ZM10.68,5.59c-.61.59-1.22,1.18-1.86,1.79-.65-.47-.65-.53-.13-1.15.09-.11.19-.2.28-.31.48-.62,1.05-.73,1.72-.33h0ZM8.01,4.97c.22.02.43.05.65.08.12.02.25.05.39.07-.4.47-.78.91-1.18,1.39-.12-.08-.27-.16-.38-.27-.16-.15-.52-.16-.43-.48.16-.52.55-.83.95-.8h0ZM7.36,4.92c-.18.27-.32.5-.49.7-.05.06-.21.09-.29.06-.34-.14-.67-.3-1.04-.47.55-.32,1.14-.3,1.81-.29h0ZM4.68,6.81c.23-1.05.15-1.02,1.11-.54.98.49,1.84,1.13,2.64,2-.17-.02-.28-.06-.35-.02-.17.09-.4.18-.46.33-.06.13.02.4.13.51.23.23.52.41.77.68-.18,0-.36-.02-.53,0-.36.04-.71.08-1.06.16-.37.09-.54.35-.47.61.07.25.34.38.68.32.11-.02.21-.04.31-.05-.79.94-1.57,1.87-2.42,2.88-.16-.93-.34-1.8-.45-2.68-.17-1.41-.2-2.82.11-4.21h0ZM8.44,48.69c-.16-.77.14-1.45.75-1.74.45,1.18.9,2.35,1.34,3.5-.96-.05-1.91-.83-2.09-1.75h0ZM43.13,45.81c-.43,2.41-1.8,4.09-4.01,5.09-2.15.97-4.43,1.46-6.79,1.52-.71.02-1.41-.07-2.07-.34-.65-.27-1.15-.7-1.3-1.43-.12-.61.02-1.16.54-1.55.61-.46,1.3-.52,2-.23.22.09.41.26.61.39.23.15.45.31.72.1.22-.17.23-.46.02-.79-.41-.64-1.02-.99-1.75-1.14-.17-.04-.34-.05-.56-.09.1-.15.17-.3.27-.41.37-.39.75-.79,1.13-1.17.3-.3.37-.53.2-.79-.18-.26-.48-.32-.84-.16-.64.29-1.11.79-1.55,1.3-.14.16-.29.34-.39.53-.38.64-.8,1.24-1.31,1.8-.69.75-.82,1.72-.5,2.7.11.33,0,.45-.29.55-.72.24-1.45.31-2.19.16-.96-.2-1.48-.86-1.72-1.75-.28-1-.29-2.02-.16-3.03.1-.78.28-1.54.43-2.31.05-.29.12-.57.16-.85.04-.28-.06-.51-.34-.62-.29-.11-.52.02-.65.25-.23.41-.46.84-.6,1.28-.48,1.59-.69,3.21-.38,4.86.07.36.2.7.32,1.1-.14,0-.25.03-.36.02-1.41-.11-2.8-.3-4.14-.79-.5-.18-.49-.18-.4-.7.16-.9.21-1.8-.12-2.67-.14-.38-.39-.77-.7-1.04-.8-.71-1.43-1.54-1.87-2.51-.08-.17-.14-.36-.27-.48-.14-.12-.38-.25-.54-.21-.17.05-.37.27-.4.44-.05.26,0,.55.07.82.36,1.26,1.12,2.27,2.11,3.11.25.21.41.44.39.77-.04.79-.02,1.6-.15,2.38-.19,1.09-1.05,1.61-2.15,1.44-.72-.12-1.29-.47-1.73-1.05-.75-1-1.09-2.16-1.32-3.36-.43-2.26-.51-4.54-.31-6.84,0-.11.04-.22.06-.36.11.03.2.05.28.07.36.08.72.18,1.08.25.3.05.61-.29.71-.61.1-.33-.12-.54-.39-.65-.4-.17-1.99-.84-2.29-.93-1.64-.51-3.21-1.18-4.58-2.25-1.58-1.23-2.84-2.7-3.28-4.71-.39-1.76-.08-3.36,1.23-4.68.31-.31.45-.67.41-1.12-.43-5.21,1.52-9.55,5.04-13.24,1.03-1.08,2.23-2,3.36-3,.11-.1.23-.18.41-.31-.02.37-.05.68-.05,1-.01,1.06.18,2.07.81,2.96.15.21.35.4.55.57.2.16.41.12.58-.08.16-.19.04-.34-.09-.48-1.13-1.21-1.26-2.67-1.05-4.21.02-.14.13-.31.25-.38.93-.52,1.86-1.01,2.79-1.51.02.03.03.05.04.08-.2.51-.45,1-.59,1.52-.46,1.66-.52,3.33-.09,5,.04.17.1.34.18.49.1.2.26.35.5.26.25-.09.34-.29.25-.56-.35-1.06-.37-2.16-.3-3.26.08-1.23.39-2.39,1.03-3.46.21-.36.49-.59.91-.69.84-.21,1.67-.45,2.58-.7-.05.12-.06.17-.09.2-1.28,1.29-2,2.89-2.39,4.62-.22.95-.29,1.94-.42,2.91-.02.12-.03.27.02.38.05.12.17.27.28.29.11.02.31-.07.36-.18.09-.16.12-.37.14-.56.22-2.12.75-4.14,1.91-5.95.04-.06.07-.12.11-.18,1.11-1.59,1.46-1.79,3.39-1.82.64-.01,1.27.02,1.91.05.24.01.48.05.81.09-.13.1-.2.16-.28.21-2.89,1.73-4.78,4.27-5.96,7.37-.07.18-.14.38-.13.57.01.15.12.38.24.42.11.04.37-.08.44-.2.23-.43.4-.88.61-1.32,1.25-2.59,3.01-4.74,5.48-6.29.68-.43,1.31-.56,2.05-.27.14.05.28.08.48.13-.14.16-.24.27-.34.39-.28.34-.57.67-.82,1.03-.24.36-.2.68.04.88.23.19.57.16.88-.12.55-.51,1.07-1.06,1.64-1.54,1.94-1.63,4.05-2.95,6.51-3.65.56-.16,1.15-.24,1.73-.32.27-.04.56.03.84.05,0,.03,0,.06,0,.09-.3.14-.6.27-.89.42-2.13,1.13-3.81,2.76-5.2,4.7-.33.46-.61.95-.91,1.43-.06.1-.11.2-.16.31-.09.23-.09.46.14.62.23.15.47.09.62-.11.29-.37.55-.77.82-1.16,1.67-2.43,3.75-4.35,6.55-5.41.32-.12.47-.04.62.25.67,1.36,1.02,2.8,1.18,4.29.26,2.34.25,4.67-.45,6.94-.19.61-.46,1.18-.72,1.76-.14.32-.23.61.05.89.23.23.63.27.96.05.26-.17.47-.4.7-.62.09-.09.16-.19.27-.34.11.21.2.38.27.56.71,1.62.98,3.34,1.04,5.1.01.32-.22,4.58-.83,6.23-1.17,3.28-3.41,5.59-6.49,7.11-.64.32-1.32.54-1.99.8-.5.2-.75.5-.67.84.08.35.42.52.96.46,1.31-.15,2.48-.7,3.63-1.31.29-.15.56-.32.83-.5.16-.11.27-.08.38.07.01.02.03.04.04.05.5.76.62.55-.07,1.31-1.1,1.21-2.49,1.97-4.04,2.46-.22.07-.46.11-.65.23-.13.09-.28.33-.25.46.03.12.3.29.43.27.54-.1,1.09-.23,1.61-.42,1.31-.5,2.5-1.2,3.47-2.23.15-.16.28-.34.46-.55.09.14.19.26.25.4.18.41.34.83.52,1.25.1.22.04.39-.12.56-.96,1-2.14,1.6-3.45,1.96-.52.14-1.06.22-1.59.32-.39.07-.59.23-.56.48.02.25.25.39.66.36,1.49-.11,2.88-.54,4.15-1.34.45-.28.85-.63,1.3-.97.03.07.08.16.1.25.08.45.17.91.23,1.37.09.68.07.68-.54,1.02-1.41.77-2.93,1.05-4.52.93-.16-.01-.34-.04-.48.02-.13.05-.28.2-.3.33-.02.12.09.32.2.39.16.1.37.13.56.14,1.7.16,3.31-.16,4.82-.99.1-.05.2-.1.41-.2-.09.77-.12,1.47-.24,2.16h0ZM45.91,49.22c-.8.05-1.61.09-2.43.14.36-.73.73-1.38.98-2.07.25-.7.38-1.45.58-2.23.2.55.43,1.05.57,1.58.21.73.36,1.48.53,2.22.04.2,0,.35-.24.36h0ZM46.86,49.14c-.11-1.9-.72-3.57-1.57-5.16-.12-.23-.12-.37.08-.56.31-.29.59-.62.88-.93.04.03.07.04.09.07,1.52,1.69,3.04,3.38,4.58,5.09-1.21.79-2.59,1.19-4.05,1.49h0ZM51.61,47.2c-.39-.36-.72-.65-1.05-.95.02-.02.03-.04.04-.06.5.18,1,.36,1.56.55-.21.17-.39.32-.56.46h0ZM53.03,45.88c-.15.18-.32.23-.55.18-1.59-.3-2.91-1.08-4.02-2.25-.6-.64-1.15-1.33-1.71-2-.06-.07-.08-.21-.06-.3.12-.43.27-.86.41-1.32,2.27,1.94,4.87,2.65,7.86,1.93-.38,1.43-1.01,2.68-1.94,3.77h0ZM55.26,40.23c-.08.88.02.79-.84,1.02-1.97.54-3.82.13-5.57-.84-.52-.29-.98-.68-1.46-1.04-.1-.07-.2-.21-.21-.33-.06-.46-.09-.92-.13-1.43,2.79,1.55,5.38,1.15,7.88-.7.32.96.35,1.92.36,2.88,0,.15-.01.3-.02.45h0Z"/>
      <g class="sg-eye-open sg-eye-right"><path class="cls-3" d="M25.9,19.96c-.31.31-.57.63-.78.97-.73,1.17-.89,2.54-.56,3.84.05.2.11.39.18.57,1.08,2.74,4.68,3.23,6.85,1.39,1.71-1.45,2.1-4.15.94-6.09-1.36-2.29-4.7-2.63-6.65-.68h0Z"/></g><g class="sg-eye-closed sg-eye-right" style="display:none"><path d="M24,21.7 Q28,24.7 32,21.7" fill="none" stroke="#000" stroke-width="0.9" stroke-linecap="round"/></g>
      <path class="cls-2" d="M27.08,21.32c0-.69.52-1.23,1.18-1.24.63,0,1.16.58,1.17,1.3,0,.68-.49,1.23-1.14,1.24-.66.01-1.21-.58-1.21-1.3h0Z"/>
      <path class="cls-2" d="M28.74,23.94c.01-.39.34-.7.76-.69.38,0,.64.27.63.63,0,.41-.36.76-.76.74-.37-.02-.64-.32-.64-.68Z"/>
      <circle class="cls-1" cx="11.08" cy="24.38" r=".44"/>
      <g class="sg-eye-open sg-eye-left"><path class="cls-3" d="M6.8,20.27c-.27.31-.5.63-.68.97-.64,1.17-.78,2.54-.49,3.84.04.2.09.39.16.57.95,2.74,4.11,3.23,6.01,1.39,1.5-1.45,1.84-4.15.83-6.09-1.2-2.29-4.12-2.63-5.83-.68h0Z"/></g><g class="sg-eye-closed sg-eye-left" style="display:none"><path d="M5.5,22 Q9.5,25 13.5,22" fill="none" stroke="#000" stroke-width="0.9" stroke-linecap="round"/></g>
      <g class="sg-mouth" style="transform-box:fill-box;transform-origin:center"><path d="M19.3,26.58c-.29.02-.4.23-.43.5-.02.21-.03.42-.08.62-.12.48-.58.73-1.05.57-.6-.22-.71-.75-.83-1.3-.1-.48.08-.71.51-.84.01,0,.02-.01.03-.02.24-.18.45-.38.4-.71-.05-.32-.29-.53-.59-.56-.43-.04-.88-.07-1.29.04-.68.16-.81.82-.25,1.24.31.24.36.48.25.79-.13.38-.25.77-.45,1.11-.09.15-.41.27-.59.22-.17-.04-.33-.29-.41-.48-.07-.18-.05-.41-.06-.62-.02-.25-.11-.46-.38-.51-.29-.05-.5.13-.53.38-.04.43-.08.89.04,1.29.26.88,1.17,1.27,2.01.91.33-.14.6-.41.97-.66.06.07.14.18.24.28.85.79,2.09.68,2.75-.25.34-.47.4-1,.25-1.55-.07-.25-.24-.44-.52-.42h0Z"/></g>
      <path d="M36.22,11.5c1.1.19,2.21.35,3.3.62.64.16,1.23.51,1.85.77.23.09.45.14.61-.12.16-.26.02-.44-.18-.59-.07-.05-.15-.11-.23-.16-.85-.54-1.8-.83-2.78-1.05-.11-.02-.22-.05-.34-.08,0-.03,0-.06,0-.09.39-.1.78-.2,1.16-.3.08-.02.16-.04.24-.05.28-.06.42-.26.42-.52s-.23-.41-.45-.39c-.5.04-1.02.09-1.49.23-.54.17-1.05.45-1.61.69.07-.11.12-.21.2-.28.44-.43.88-.85,1.32-1.28.18-.18.35-.38.2-.63-.16-.26-.42-.25-.68-.16-.07.02-.13.05-.19.08-.9.54-1.66,1.22-2.13,2.18-.09.18-.11.43-.07.63.08.45.47.46.83.52h0Z"/>
      <path d="M23.12,12.96c.2-.1.39-.18.55-.28,1.23-.76,2.34-1.69,3.35-2.73.27-.28.53-.58.74-.91.07-.11.02-.37-.07-.47-.07-.07-.3,0-.46.04-.07.02-.12.11-.17.16-1.2,1.29-2.51,2.45-3.97,3.44-.07.05-.17.11-.2.18-.05.11-.09.25-.05.34.04.09.18.14.29.22h0Z"/>
      <path class="cls-2" d="M8.72,21.72c0-.69.52-1.23,1.18-1.24.63,0,1.16.58,1.17,1.3,0,.68-.49,1.23-1.14,1.24-.66.01-1.21-.58-1.21-1.3h0Z"/>
      <path class="cls-2" d="M10.38,23.94c.01-.39.34-.7.76-.69.38,0,.64.27.63.63,0,.41-.36.76-.76.74-.37-.02-.64-.32-.64-.68Z"/>
      <g class="sg-pupil sg-pupil-left" style="transform-box:fill-box;transform-origin:center"><ellipse cx="9.91" cy="21.75" rx="1.06" ry="1.27"/></g>
      <g class="sg-pupil sg-pupil-right" style="transform-box:fill-box;transform-origin:center"><ellipse cx="28.26" cy="21.35" rx="1.06" ry="1.27"/></g>
      <path d="M22.76,4.13c.9-.66,1.78-1.36,2.73-1.96.56-.35,1.22-.54,1.83-.81.22-.1.41-.23.33-.52-.08-.29-.3-.32-.55-.27-.09.02-.18.03-.27.06-.98.24-1.85.73-2.67,1.29-.1.07-.19.12-.29.19-.02-.02-.04-.04-.06-.07.19-.35.39-.7.58-1.05.04-.07.09-.14.13-.21.15-.24.1-.49-.08-.66s-.46-.12-.59.05c-.32.39-.64.79-.86,1.24-.25.51-.41,1.07-.61,1.64-.03-.13-.06-.23-.06-.34,0-.61-.01-1.22-.02-1.83,0-.25-.03-.51-.32-.58-.3-.07-.47.13-.59.38-.03.06-.06.13-.07.2-.23,1.02-.26,2.04.11,3.04.07.19.24.37.41.49.38.25.66-.02.95-.24h0Z"/>
    </g>
  </g>
</svg>
